<svg width="208" height="192" viewBox="0 0 208 192" fill="none" xmlns="http://www.w3.org/2000/svg">
<g filter="url(#filter0_d_1052_59050)">
<path d="M115.783 44.346C122.436 46.1396 129.556 41.1055 131.687 33.1019C133.818 25.0984 130.153 17.1563 123.501 15.3626C116.849 13.569 109.729 18.6032 107.597 26.6067C105.466 34.6102 109.131 42.5524 115.783 44.346Z" fill="#F5EED3"/>
<path d="M101.441 26.8793C103.572 34.8828 99.9068 42.8249 93.2545 44.6186C86.6023 46.4122 79.4819 41.378 77.3507 33.3745C75.2195 25.371 78.8845 17.4288 85.5368 15.6352C92.189 13.8416 99.3094 18.8757 101.441 26.8793Z" fill="#F5EED3"/>
<path d="M77.6475 45.2229C79.7787 53.2264 76.1137 61.1686 69.4614 62.9622C62.8092 64.7558 55.6888 59.7217 53.5576 51.7181C51.4264 43.7146 55.0914 35.7725 61.7437 33.9788C68.3959 32.1852 75.5163 37.2194 77.6475 45.2229Z" fill="#F5EED3"/>
<path d="M155.345 51.6653C153.214 59.6689 146.093 64.703 139.441 62.9094C132.789 61.1158 129.124 53.1736 131.255 45.1701C133.386 37.1666 140.506 32.1324 147.159 33.9261C153.811 35.7197 157.476 43.6618 155.345 51.6653Z" fill="#F5EED3"/>
<path d="M69.9996 70.0704C64.2566 74.2016 60.8486 80.8686 60.8486 87.9724C60.8486 103.523 76.4411 114.168 90.8005 108.42L95.2182 106.652C101.174 104.268 107.812 104.268 113.768 106.652L118.186 108.42C132.545 114.168 148.137 103.523 148.137 87.9724C148.137 80.8686 144.729 74.2016 138.986 70.0703L120.258 56.5981C110.829 49.8152 98.1572 49.8152 88.728 56.5981L69.9996 70.0704Z" fill="#F5EED3"/>
<path d="M168.965 144.557C169.767 144.557 170.373 144.84 170.783 145.407C171.213 145.954 171.428 146.599 171.428 147.342V150.04C172.972 148.613 174.673 147.342 176.53 146.228C178.387 145.114 180.225 144.557 182.043 144.557C183.939 144.557 185.513 145.026 186.764 145.964C188.015 146.902 188.953 148.124 189.579 149.629C190.224 151.135 190.547 152.757 190.547 154.497V166.695C190.547 167.243 190.566 167.78 190.605 168.308C190.664 168.836 190.879 169.334 191.25 169.804C191.7 170.37 192.091 170.81 192.423 171.123C192.775 171.436 192.951 172.013 192.951 172.853C192.951 173.713 192.687 174.378 192.159 174.847C191.632 175.297 190.947 175.521 190.107 175.521H177.85C177.029 175.521 176.393 175.277 175.944 174.788C175.514 174.3 175.299 173.655 175.299 172.853C175.299 172.11 175.465 171.534 175.797 171.123C176.149 170.693 176.491 170.253 176.824 169.804C177.175 169.334 177.351 168.68 177.351 167.839V157.664C177.351 156.745 177.166 155.846 176.794 154.966C176.442 154.087 175.699 153.647 174.566 153.647C173.881 153.647 173.295 153.784 172.806 154.057C172.318 154.311 171.858 154.644 171.428 155.054V167.047C171.428 167.575 171.448 168.113 171.487 168.66C171.526 169.188 171.721 169.676 172.073 170.126C172.484 170.615 172.826 171.016 173.1 171.328C173.373 171.622 173.51 172.13 173.51 172.853C173.51 173.655 173.285 174.3 172.836 174.788C172.406 175.277 171.78 175.521 170.959 175.521H158.702C157.861 175.521 157.177 175.297 156.649 174.847C156.122 174.378 155.858 173.713 155.858 172.853C155.858 172.208 155.975 171.71 156.21 171.358C156.464 170.986 156.747 170.644 157.06 170.331C157.373 170.019 157.646 169.637 157.881 169.188C158.135 168.738 158.262 168.122 158.262 167.34V156.462C158.262 155.582 158.125 154.917 157.852 154.468C157.578 154.018 157.255 153.666 156.884 153.412C156.513 153.138 156.19 152.845 155.916 152.532C155.643 152.22 155.506 151.75 155.506 151.125C155.506 150.363 155.76 149.766 156.268 149.336C156.777 148.887 157.343 148.535 157.969 148.281L164.303 145.73C165.046 145.417 165.798 145.143 166.561 144.909C167.342 144.674 168.144 144.557 168.965 144.557Z" fill="#F5EED3"/>
<path d="M118.648 168.777C118.648 166.979 119.069 165.483 119.909 164.291C120.75 163.079 121.845 162.111 123.193 161.388C124.562 160.645 126.038 160.117 127.621 159.804C129.205 159.492 130.729 159.335 132.196 159.335C132.626 159.335 133.065 159.345 133.515 159.365C133.965 159.365 134.405 159.404 134.835 159.482V151.858C134.835 151.369 134.727 150.802 134.512 150.157C134.317 149.512 133.906 149.19 133.281 149.19C132.675 149.19 132.293 149.444 132.137 149.952C132 150.441 131.932 150.91 131.932 151.359C131.932 151.555 131.932 151.76 131.932 151.975C131.951 152.171 131.961 152.376 131.961 152.591C131.961 154.605 131.267 156.022 129.879 156.843C128.491 157.644 126.908 158.045 125.129 158.045C123.643 158.045 122.353 157.713 121.258 157.048C120.163 156.383 119.616 155.211 119.616 153.529C119.616 152.865 119.743 152.22 119.997 151.594C120.271 150.969 120.613 150.411 121.024 149.923C122.216 148.476 123.712 147.372 125.51 146.609C127.328 145.847 129.234 145.329 131.228 145.055C133.241 144.762 135.128 144.615 136.887 144.615C138.881 144.615 140.709 144.899 142.371 145.466C144.032 146.033 145.361 146.981 146.358 148.31C147.355 149.62 147.854 151.389 147.854 153.617V167.135C147.854 167.467 147.932 167.761 148.089 168.015C148.245 168.269 148.509 168.396 148.88 168.396C149.173 168.396 149.418 168.308 149.613 168.132C149.828 167.937 150.082 167.839 150.376 167.839C150.943 167.839 151.363 168.034 151.637 168.425C151.93 168.816 152.076 169.276 152.076 169.804C152.076 171.172 151.656 172.355 150.816 173.352C149.994 174.329 148.968 175.072 147.737 175.58C146.505 176.108 145.264 176.372 144.013 176.372C142.547 176.372 141.061 176.049 139.556 175.404C138.07 174.759 137.044 173.752 136.477 172.384C135.48 173.772 134.111 174.788 132.372 175.433C130.651 176.059 128.96 176.372 127.299 176.372C125.774 176.372 124.347 176.088 123.018 175.521C121.708 174.935 120.652 174.075 119.851 172.941C119.049 171.807 118.648 170.419 118.648 168.777ZM131.873 166.197C131.873 166.979 132.059 167.722 132.43 168.425C132.802 169.11 133.437 169.452 134.336 169.452C134.512 169.452 134.678 169.432 134.835 169.393V163.323C134.502 163.186 134.16 163.118 133.808 163.118C133.065 163.118 132.557 163.489 132.284 164.232C132.01 164.955 131.873 165.61 131.873 166.197Z" fill="#F5EED3"/>
<path d="M108.74 144.557C109.542 144.557 110.158 144.831 110.588 145.378C111.037 145.926 111.262 146.581 111.262 147.343V166.696C111.262 167.243 111.282 167.801 111.321 168.367C111.38 168.915 111.604 169.394 111.995 169.804C112.504 170.352 112.924 170.782 113.256 171.095C113.608 171.407 113.784 171.994 113.784 172.854C113.784 173.714 113.51 174.379 112.963 174.848C112.435 175.297 111.751 175.522 110.91 175.522H98.4482C97.6076 175.522 96.9136 175.297 96.3662 174.848C95.8384 174.398 95.5745 173.734 95.5745 172.854C95.5745 172.013 95.7407 171.427 96.073 171.095C96.4053 170.743 96.8354 170.313 97.3632 169.804C97.7542 169.413 97.9692 168.925 98.0083 168.338C98.067 167.752 98.0963 167.204 98.0963 166.696V156.462C98.0963 156.071 98.067 155.671 98.0083 155.26C97.9497 154.83 97.7835 154.468 97.5098 154.175C97.4316 154.078 97.3339 153.999 97.2166 153.941C97.1189 153.882 97.0309 153.814 96.9527 153.735C96.5226 153.286 96.1219 152.924 95.7505 152.65C95.3986 152.357 95.2227 151.849 95.2227 151.126C95.2227 150.344 95.467 149.738 95.9557 149.308C96.4444 148.878 97.0211 148.536 97.6858 148.281L104.019 145.73C104.762 145.437 105.535 145.173 106.336 144.939C107.137 144.684 107.939 144.557 108.74 144.557ZM104.342 144.44C103.091 144.44 101.83 144.254 100.559 143.883C99.2887 143.512 98.2234 142.896 97.3632 142.036C96.5226 141.156 96.1023 139.973 96.1023 138.488C96.1023 137.002 96.5324 135.839 97.3925 134.998C98.2527 134.138 99.3181 133.532 100.589 133.18C101.859 132.828 103.11 132.652 104.342 132.652C105.574 132.652 106.825 132.828 108.095 133.18C109.386 133.532 110.461 134.138 111.321 134.998C112.201 135.839 112.64 137.002 112.64 138.488C112.64 139.993 112.21 141.185 111.35 142.065C110.49 142.925 109.415 143.541 108.125 143.912C106.854 144.264 105.593 144.44 104.342 144.44Z" fill="#F5EED3"/>
<path d="M76.1058 158.133V166.695C76.1058 167.829 76.2329 168.592 76.487 168.983C76.7607 169.373 77.4644 169.686 78.5982 169.921C79.5952 170.116 80.3869 170.351 80.9734 170.625C81.5794 170.879 81.8824 171.622 81.8824 172.853C81.8824 173.733 81.6185 174.397 81.0907 174.847C80.5629 175.297 79.8689 175.521 79.0087 175.521H63.5263C62.6857 175.521 61.9918 175.297 61.4444 174.847C60.897 174.397 60.6234 173.733 60.6234 172.853C60.6234 172.149 60.7504 171.622 61.0046 171.27C61.2782 170.918 61.5812 170.605 61.9136 170.331C62.2654 170.038 62.5684 169.667 62.8226 169.217C63.0962 168.748 63.2331 168.044 63.2331 167.106V156.462C63.2331 155.582 63.0767 154.927 62.7639 154.497C62.4707 154.047 62.1286 153.696 61.7376 153.441C61.3662 153.187 61.0241 152.904 60.7113 152.591C60.4181 152.259 60.2715 151.77 60.2715 151.125C60.2715 150.363 60.5158 149.766 61.0046 149.336C61.5128 148.887 62.0895 148.535 62.7346 148.281L70.0653 145.378C70.5345 145.182 71.0134 144.996 71.5021 144.821C71.9908 144.645 72.4991 144.557 73.0269 144.557C73.7111 144.557 74.2194 144.821 74.5517 145.348C74.884 145.857 75.1088 146.453 75.2261 147.137C75.3629 147.802 75.4607 148.388 75.5193 148.896C75.578 149.248 75.6366 149.6 75.6953 149.952C75.7539 150.304 75.8028 150.656 75.8419 151.008C76.4479 149.209 77.3764 147.684 78.6275 146.433C79.8982 145.182 81.6478 144.557 83.8763 144.557C85.4598 144.557 86.7011 144.948 87.6003 145.73C88.5191 146.511 89.174 147.518 89.5649 148.75C89.9559 149.962 90.1514 151.252 90.1514 152.62C90.1514 153.891 89.9852 155.123 89.6529 156.315C89.3206 157.488 88.7341 158.456 87.8935 159.218C87.0725 159.98 85.9094 160.362 84.4041 160.362C82.7621 160.362 81.5598 160.107 80.7974 159.599C80.0546 159.091 79.5757 158.465 79.3606 157.723C79.1456 156.98 79.0283 156.237 79.0087 155.494C79.0087 154.751 78.9501 154.126 78.8328 153.617C78.7155 153.109 78.3636 152.855 77.7772 152.855C77.2494 152.855 76.8682 153.226 76.6336 153.969C76.399 154.693 76.2524 155.474 76.1938 156.315C76.1351 157.156 76.1058 157.762 76.1058 158.133Z" fill="#F5EED3"/>
<path d="M55.9053 165.787C55.9053 167.781 55.4654 169.413 54.5858 170.684C53.7061 171.955 52.5429 172.942 51.0963 173.646C49.6693 174.349 48.1152 174.838 46.434 175.112C44.7529 175.385 43.101 175.522 41.4785 175.522H18.4894C17.4338 175.522 16.5834 175.268 15.9383 174.76C15.3128 174.252 15 173.44 15 172.326C15 171.349 15.1955 170.616 15.5865 170.127C15.997 169.619 16.4661 169.208 16.9939 168.895C17.5218 168.582 17.9811 168.221 18.3721 167.81C18.7826 167.38 18.9879 166.755 18.9879 165.934V144.528C18.9879 143.668 18.7826 143.033 18.3721 142.622C17.9811 142.212 17.5218 141.86 16.9939 141.566C16.4661 141.254 15.997 140.853 15.5865 140.364C15.1955 139.875 15 139.133 15 138.136C15 137.021 15.3128 136.21 15.9383 135.702C16.5834 135.194 17.4338 134.939 18.4894 134.939H36.4056C38.3214 134.939 40.286 135.145 42.2995 135.555C44.3326 135.966 46.2092 136.64 47.9295 137.579C49.6498 138.517 51.0377 139.768 52.0933 141.332C53.1685 142.896 53.7061 144.831 53.7061 147.138C53.7061 149.659 52.9339 151.644 51.3896 153.09C49.8648 154.517 48.0468 155.544 45.9355 156.169C47.6363 156.541 49.2392 157.127 50.7445 157.929C52.2693 158.71 53.5106 159.747 54.4685 161.037C55.4263 162.327 55.9053 163.91 55.9053 165.787ZM33.5906 140.833H33.4147V154.82H34.4703C36.6793 154.82 38.1943 154.185 39.0154 152.914C39.8559 151.644 40.2762 150.002 40.2762 147.988C40.2762 145.799 39.7289 144.059 38.6342 142.769C37.5394 141.478 35.8583 140.833 33.5906 140.833ZM41.7717 165.171C41.7717 163.607 41.3123 162.317 40.3935 161.301C39.4943 160.265 38.2334 159.747 36.6109 159.747H33.4147V164.761C33.4147 166.246 33.7764 167.439 34.4997 168.338C35.2229 169.218 36.3568 169.658 37.9011 169.658C39.3281 169.658 40.3251 169.237 40.892 168.397C41.4785 167.556 41.7717 166.481 41.7717 165.171Z" fill="#F5EED3"/>
</g>
<defs>
<filter id="filter0_d_1052_59050" x="0" y="0" width="207.951" height="191.371" filterUnits="userSpaceOnUse" color-interpolation-filters="sRGB">
<feFlood flood-opacity="0" result="BackgroundImageFix"/>
<feColorMatrix in="SourceAlpha" type="matrix" values="0 0 0 0 0 0 0 0 0 0 0 0 0 0 0 0 0 0 127 0" result="hardAlpha"/>
<feOffset/>
<feGaussianBlur stdDeviation="7.5"/>
<feComposite in2="hardAlpha" operator="out"/>
<feColorMatrix type="matrix" values="0 0 0 0 0 0 0 0 0 0 0 0 0 0 0 0 0 0 0.25 0"/>
<feBlend mode="normal" in2="BackgroundImageFix" result="effect1_dropShadow_1052_59050"/>
<feBlend mode="normal" in="SourceGraphic" in2="effect1_dropShadow_1052_59050" result="shape"/>
</filter>
</defs>
</svg>
